<svg xmlns="http://www.w3.org/2000/svg" viewBox="0 0 213.05 212.96"><defs><style>.cls-1{fill:#e42364;}</style></defs><title>Logo</title><g id="Capa_2" data-name="Capa 2"><g id="Capa_1-2" data-name="Capa 1"><path class="cls-1" d="M128.79,0v.6h-.57v106.1c0,9.33-2.25,21.73-21.74,21.73a21.76,21.76,0,0,1-21.73-21.73h-35a56.8,56.8,0,0,0,57.61,56.73c31.14-.48,55.86-26.46,55.86-57.6V35.08l14.74,0v70.3c0,39.52-31.6,72.37-71.12,72.56A71.56,71.56,0,0,1,35,106.12C35.2,66.61,68.05,35,107.56,35h7.82V0h-7.62C48.5,0-.34,47.85,0,107.11A106.6,106.6,0,0,0,105.86,213c59.26.34,107.1-48.5,107.1-107.75V35.12h.09V11.7A11.58,11.58,0,0,0,201.47.12c-20.13,0-37.6,0-53.43-.07Z"/></g></g></svg>